<?xml version="1.0" encoding="UTF-8"?>
<svg width="1066.7" height="1066.7" version="1.1" viewBox="0 0 1066.7 1066.7" xml:space="preserve" xmlns="http://www.w3.org/2000/svg"><defs><clipPath id="a"><path d="m0 800h800v-800h-800z"/></clipPath></defs><g transform="matrix(1.3333 0 0 -1.3333 0 1066.7)"><g clip-path="url(#a)" stroke="#000" stroke-linecap="round" stroke-linejoin="round" stroke-width="6"><path d="m361.18 747.3v-1.576l13.572 0.922z" fill="#5bcefa" style="paint-order:normal"/><path d="m412.7 754.37-21.522 13.981-29.995-19.672v-1.384l13.572-0.654z" fill="#5bcefa" style="paint-order:normal"/><path d="m78.207 231.31 31.45-13.23-31.45 44.861z" fill="#fff" style="paint-order:normal"/><path d="m120.27 291.76-42.065-22.991v-5.824l31.45-44.861 3.519-1.48 77.554 43.753 7.471 15.359z" fill="#fff" style="paint-order:normal"/><path d="m168.89 377.21-37.585 11.244-20.914-11.451v-34.268l0.964-0.485 60.117 33.439z" fill="#f5a9c9" style="paint-order:normal"/><g fill="#5bcefa"><path d="m153.62 512.28 7.825-4.248-52.154-29.302v-17.908l79.302 54.609z" style="paint-order:normal"/><path d="m110.19 607.15-31.98-16.481v-37.448l19.429-10.549 60.716 36.669z" style="paint-order:normal"/><path d="m192.23 604.98v-5.171l5.228 3.158z" style="paint-order:normal"/><path d="m197.46 602.96-5.228-3.158v-40.025l-33.882 19.563-60.716-36.669 55.989-30.399 34.973 3.151z" style="paint-order:normal"/><path d="m109.3 460.82v-16.258l28.913-14.401 43.415 25.512 6.974 59.756z" style="paint-order:normal"/></g><path d="m140.89 393.7-9.583-5.245 37.585-11.244z" fill="#f5a9c9" style="paint-order:normal"/><path d="m197.99 624.04-5.76-3.889v-15.176l5.228-2.013z" fill="#5bcefa" style="paint-order:normal"/><path d="m172.65 375-1.179 0.693-60.117-33.439 52.774-26.527-43.856-23.968 77.929-16.044z" fill="#f5a9c9" style="paint-order:normal"/><path d="m361.18 745.72v-3.818l13.572 4.74z" fill="#5bcefa" style="paint-order:normal"/><path d="m245.2 430.04-29.736-18.456 13.011-7.462 25.494 12.689z" fill="#f5a9c9" style="paint-order:normal"/><path d="m181.62 455.67 33.526 19.703-26.552 40.053z" fill="#5bcefa" style="paint-order:normal"/><path d="m190.73 260.36 4.296 2.423v-59.382l24.926-16.49 29.498 18.274v25.861l-51.249 44.673z" fill="#fff" style="paint-order:normal"/><path d="m282.03 669.03v-32.78l9.749-5.553 6.901 47.992z" fill="#5bcefa" style="paint-order:normal"/><path d="m247.23 606.39 0.029 12.975-30.3 17.485-18.969-12.808-0.532-21.078z" fill="#5bcefa" style="paint-order:normal"/><g fill="#f5a9c9"><path d="m228.48 404.12 16.694-9.574 8.8 22.263z" style="paint-order:normal"/><path d="m229.55 355.01-11.598-6.69-45.299 26.677 25.551-99.285z" style="paint-order:normal"/><path d="m282.04 189.9v-33.068l4.377-2.509-3.516 36.065z" style="paint-order:normal"/><path d="m245.17 394.55 25.024-14.352 0.313-0.24-16.537 36.855z" style="paint-order:normal"/></g><path d="m303.38 306.7v-33.572l15.232-0.372z" fill="#fff" style="paint-order:normal"/><path d="m229.55 355.01-31.346-79.298 51.249-1.258v19.327l47.454 27.351-25.926 57.78z" fill="#f5a9c9" style="paint-order:normal"/><path d="m247.12 555.67 0.114 50.719-49.772-3.426z" fill="#5bcefa" style="paint-order:normal"/><path d="m188.6 515.43 73.599 4.906-15.138 8.646 0.061 26.692-49.658 47.293z" fill="#5bcefa" style="paint-order:normal"/><path d="m260.16 439.32-14.951-9.279 8.769-13.229z" fill="#f5a9c9" style="paint-order:normal"/><path d="m262.2 520.33-73.599-4.906 26.552-40.053 0.121 0.071 47.286-27.385 17.11 62.296z" fill="#5bcefa" style="paint-order:normal"/><g fill="#fff"><path d="m249.45 231.04v43.415l-51.249 1.258z" style="paint-order:normal"/><path d="m303.38 273.13v-13.618l12.463 8.01 2.769 5.236z" style="paint-order:normal"/><path d="m409.7 369.48h-41.967l-7.182 10.61-41.939-107.33 21.353 10.271 19.831 12.748v-3.208l66.3 31.898z" style="paint-order:normal"/></g><path d="m359.88 655.75-51.142 28.775-10.063-5.836-6.901-47.992 18.613-10.601 55.868 27.934z" fill="#5bcefa" style="paint-order:normal"/><path d="m353.96 434.7 12.025 19.896-63.835 51.489 0.024-8.587-22.505 12.855-17.11-62.296 6.045-3.5-8.446-5.244-6.182-22.508z" fill="#f5a9c9" style="paint-order:normal"/><path d="m360.55 380.09-20.923 30.898 14.331 23.714-99.984-17.895 16.537-36.855 0.972-0.747-0.505-0.292 25.926-57.78 6.475 3.731v-18.161l15.232-33.944z" fill="#fff" style="paint-order:normal"/><g fill="#5bcefa"><path d="m361.18 124.99v-47.828l29.995-19.463 30.282 19.457v93.858l19.785-11.193-1.483 49.405z" style="paint-order:normal"/><path d="m310.39 620.09 27.179-15.48 28.689 43.414z" style="paint-order:normal"/><path d="m301.99 561.36 0.029-10.54 5.131 7.764z" style="paint-order:normal"/><path d="m423.62 530.85-0.956-0.582v2.532l-56.408 115.22-28.689-43.414 22.226-12.659v-61.681l-52.642 28.312-5.131-7.764 0.093-33.051 142.08-28.935z" style="paint-order:normal"/></g><path d="m306.77 203.95-23.865-13.565 3.516-36.065 22.33-12.787 52.435 29.486v-46.024l78.579 84.236z" fill="#f5a9c9" style="paint-order:normal"/><path d="m315.84 267.52 5.728 3.683-2.959 1.553z" fill="#df5e00" style="paint-order:normal"/><path d="m359.8 251.16v-17.078l-53.029-30.137 133 5.281z" fill="#f5a9c9" style="paint-order:normal"/><path d="m366.35 455.2h36.314l41.532 33.634-142.08 28.935 0.033-11.68 63.835-51.489z" fill="#f5a9c9" style="paint-order:normal"/><path d="m374.75 746.64-13.572-4.74v-86.889l-1.299 0.73 6.375-7.72z" fill="#5bcefa" style="paint-order:normal"/><path d="m321.57 271.21 18.394 11.824-21.353-10.271z" fill="#e88100" style="paint-order:normal"/><path d="m359.8 292.57v-41.408l79.966-41.934-1.925 16.231-15.182 8.625v61.694l7.377-4.503-3.936 33.193z" fill="#f5a9c9" style="paint-order:normal"/><path d="m444.22 410.99-24.149-41.508h-10.373l16.396-45.012 55.772 84.583-44.681 14.162z" fill="#fff" style="paint-order:normal"/><path d="m534.4 620.72v-7.287l4.721 6.52z" fill="#00b0ed" style="paint-order:normal"/><path d="m422.67 532.8v59.149l64.363 36.461-120.77 19.612z" fill="#5bcefa" style="paint-order:normal"/><path d="m477.7 535.12v28.727l-54.079-32.993 20.57-42.02z" fill="#f5a9c9" style="paint-order:normal"/><path d="m366.26 648.03 55.201 46.908v53.749l-8.76 5.691-37.945-7.729z" fill="#5bcefa" style="paint-order:normal"/><path d="m487.03 628.41 16.094 9.117v29.505l-27.322 18.082-54.342-30.102v39.918l-55.201-46.908z" fill="#5bcefa" style="paint-order:normal"/><path d="m538.23 626.01-3.829-1.782v-3.508l4.721-0.767z" fill="#0080dd" style="paint-order:normal"/><g fill="#f5a9c9"><path d="m539.12 619.96-4.721-6.52v-63.114l16.54 11.275z" style="paint-order:normal"/><path d="m477.7 511.68v23.445l-33.509-46.286z" style="paint-order:normal"/><path d="m445.71 220.99-7.873 4.475 1.925-16.231z" style="paint-order:normal"/><path d="m430.03 291.28 39.15-23.895 8.502 16.806v21.835l-51.588 18.447z" style="paint-order:normal"/></g><path d="m402.66 455.2h16.121l18.405-31.985 44.681-14.162-37.675 79.781z" fill="#fff" style="paint-order:normal"/><path d="m473.6 141.52 26.839 13.409v34.964l-10.655 6.052-16.691-54.135z" fill="#5bcefa" style="paint-order:normal"/><path d="m441.24 159.82 31.844-18.012 16.691 54.135-32.419 18.42-17.599-5.138z" fill="#5bcefa" style="paint-order:normal"/><g fill="#f5a9c9"><path d="m477.68 262.19v21.995l-8.502-16.806z" style="paint-order:normal"/><path d="m457.36 214.37-11.651 6.618-5.948-11.756z" style="paint-order:normal"/><path d="m426.1 324.47 51.588-18.447v17.864l8.561-4.88-4.377 90.046z" style="paint-order:normal"/></g><path d="m584.39 198.95-49.203 15.97v-12.604l27.317-15.6z" fill="#5bcefa" style="paint-order:normal"/><path d="m481.87 409.05 56.167 18.418-25.191 15.696 28.847 18.321-97.498 27.346z" fill="#fff" style="paint-order:normal"/><path d="m541.69 461.49 25.894 16.445 20.499-12.119-37.146 95.783-16.54-11.275v-22.723l-56.696-30.904v14.98l-33.509-22.841z" fill="#fff" style="paint-order:normal"/><path d="m546.84 630.02-8.609-4.008 0.892-6.057z" fill="#30a2c4" style="paint-order:normal"/><path d="m626.5 313.36-4.003 2.379 3.053 1.716-13.196 56.856-44.768-25.007-32.461 16.999-39.698-52.529 32.279-18.397 107.45-19.291z" fill="#5bcefa" style="paint-order:normal"/><path d="m511.25 378.8 54.526 31.382-27.745 17.288-56.167-18.418 4.377-90.046 9.181-5.234 39.698 52.529z" fill="#f5a9c9" style="paint-order:normal"/><g fill="#5bcefa"><path d="m590.41 260.82 1.098-0.625 43.641 15.893-107.45 19.291 7.483-4.265v-51.427l55.225 20.109z" style="paint-order:normal"/><path d="m591.51 260.19 39.564-22.521 4.077 38.414z" style="paint-order:normal"/><path d="m590.41 202.32v57.477l-55.225-20.109v-24.764l49.203-15.97z" style="paint-order:normal"/></g><path d="m550.94 561.6 37.146-95.783 9.055-5.352 9.942 93.01z" fill="#fff" style="paint-order:normal"/><path d="m584.18 626.99-22.469 9.955-14.88-6.925-7.717-10.065z" fill="#f5a9c9" style="paint-order:normal"/><path d="m550.94 561.6 56.143-8.125-11.842 11.583-4.826-2.607v7.327l-51.294 50.181z" fill="#f5a9c9" style="paint-order:normal"/><path d="m612.14 574.18-16.899-9.128 11.842-11.583z" fill="#fff" style="paint-order:normal"/><path d="m590.41 569.78v54.456l-6.228 2.76-45.066-7.035z" fill="#f5a9c9" style="paint-order:normal"/><path d="m646.73 431.15 1.017 0.564-3.759 1.056z" fill="#ffce00" style="paint-order:normal"/><g fill="#5bcefa"><path d="m649.9 299.46-23.405 13.901 8.653-37.274z" style="paint-order:normal"/><path d="m672.16 343.64v31.896l-25.428 17.974-34.375-19.202 13.196-56.856z" style="paint-order:normal"/><path d="m673.45 479.34-13.112 7.35 13.112-16.444z" style="paint-order:normal"/></g><path d="m636.52 516.55 59.513 33.833-88.955 3.091z" fill="#fff" style="paint-order:normal"/><path d="m597.14 460.46 46.847-27.696 3.759-1.056 25.702 14.242v24.291l-13.112 16.444-38.438 21.545 14.626 8.316-29.442 36.924z" fill="#f5a9c9" style="paint-order:normal"/><path d="m696.04 550.38 8.315 4.727v27.235l-34.701 22.903-57.512-31.063-5.057-20.711z" fill="#fff" style="paint-order:normal"/><path d="m673.04 285.72-23.137 13.743-14.752-23.373z" fill="#5bcefa" style="paint-order:normal"/><path d="m704.35 590.06-29.517 17.98-5.184-2.798 34.701-22.903z" fill="#fff" style="paint-order:normal"/><path d="m631.07 237.67 37.016-21.068 29.05 13.266-61.989 46.216z" fill="#5bcefa" style="paint-order:normal"/><path d="m697.14 229.87 4.43 2.025v36.874l-28.53 16.947-37.889-9.63z" fill="#5bcefa" style="paint-order:normal"/></g></g></svg>
