<?xml version="1.0" encoding="UTF-8"?>
<svg width="210mm" height="297mm" version="1.1" viewBox="0 0 210 297" xmlns="http://www.w3.org/2000/svg"><defs><filter id="a" x="-.20936" y="-.20936" width="1.5164" height="1.5226" color-interpolation-filters="sRGB"><feFlood flood-color="rgb(0,0,0)" flood-opacity=".23922" result="flood"/><feComposite in="flood" in2="SourceGraphic" operator="in" result="composite1"/><feGaussianBlur in="composite1" result="blur" stdDeviation="3.6"/><feOffset dx="4.03079" dy="4.28824" result="offset"/><feComposite in="SourceGraphic" in2="offset" result="composite2"/></filter></defs><path d="m22.643 123.26c-4.168-8.7103 25.16-31.422 65.507-50.729 40.346-19.306 76.432-27.896 80.6-19.186" fill="none" stroke="#000" stroke-linecap="round" stroke-linejoin="round" stroke-width="4"/><circle cx="95.499" cy="86.604" r="48.74" fill="#497bdf"/><path d="m168.75 53.349c4.168 8.7103-25.16 31.422-65.507 50.729-40.346 19.306-76.432 27.896-80.6 19.186" fill="none" stroke="#000" stroke-linecap="round" stroke-linejoin="round" stroke-width="4"/><circle cx="106.14" cy="99.178" r="20.635" fill="#dde3f0" filter="url(#a)"/><g fill="#ffffff" font-family="sans-serif" font-size="40px"><text transform="matrix(.26458 0 0 .26458 -1.0583 1.0583)" style="line-height:1.25;shape-inside:url(#rect11349);white-space:pre" xml:space="preserve"/><text transform="matrix(.26458 0 0 .26458 16.631 15.631)" style="line-height:1.25;shape-inside:url(#rect11349-4);white-space:pre" xml:space="preserve"/><text transform="matrix(.26458 0 0 .26458 -2.9638 29.862)" style="line-height:1.25;shape-inside:url(#rect11349-4-1);white-space:pre" xml:space="preserve"/><text transform="matrix(.26458 0 0 .26458 -2.459 37.356)" style="line-height:1.25;shape-inside:url(#rect11349-4-1-0);white-space:pre" xml:space="preserve"/></g><text transform="matrix(.26458 0 0 .26458 31.961 35.285)" fill="#000000" font-family="sans-serif" font-size="40px" style="line-height:1.25;shape-inside:url(#rect11349-42);white-space:pre" xml:space="preserve"/></svg>
